<svg width="260" height="80" version="1.1" viewBox="0 0 68.792 21.167" xmlns="http://www.w3.org/2000/svg">
 <g fill="#fff" stroke="#fff" stroke-width="1.1182">
  <path transform="scale(.26458)" d="m18.444 57.517c-0.80559-0.97068 3.6763-30.716 4.9124-32.603 0.46595-0.71113 1.6002-1.7521 2.5206-2.3133 1.5822-0.96474 2.7727-1.0204 21.834-1.0204 19.196 0 20.243 0.04982 21.868 1.0406 3.0415 1.8544 3.4237 3.1043 5.8361 19.086 2.324 15.396 2.3425 16.526 0.27102 16.526-0.3841 0-3.2893-2.4743-6.456-5.4985l-5.7576-5.4985-31.209 0.0114-5.8916 5.4927c-3.2404 3.021-6.2161 5.4927-6.6126 5.4927s-0.98839-0.32226-1.3153-0.71613zm17.747-17.612v-3.6656h7.8549v-4.1893h-7.8549v-7.3313h-4.713v7.3313h-7.8549v4.1893h7.8549v7.3313h4.713zm34.397 2.527c1.4758-1.3864 1.5672-3.5434 0.22057-5.2064-0.75532-0.93278-1.5169-1.2244-3.1979-1.2244-2.5849 0-4.1893 1.5172-4.1893 3.9617 0 3.3358 4.5686 4.9098 7.1666 2.469zm-7.9283-11.144c0.70694-0.70694 1.2854-1.8959 1.2854-2.6421 0-1.9213-2.1774-3.9275-4.2627-3.9275-3.7617 0-5.5904 4.5244-2.7362 6.7696 1.8676 1.469 4.1234 1.39 5.7135-0.20002z" opacity=".999" style="paint-order:stroke fill markers"/>
  <path transform="scale(.26458)" d="m123.64 76.501c-64.083-0.22601-117.52-0.55489-118.74-0.73085l-2.2256-0.31993 0.0016-27.067c8.82e-4 -14.887 0.1558-31.132 0.34426-36.101l0.34266-9.0332h253.81v73.836l-8.5095-0.08673c-4.6802-0.04771-60.941-0.27164-125.02-0.49765zm-43.074-11.3c2.3908-1.1263 4.729-3.9766 5.1697-6.3021 0.73074-3.8553-3.5046-32.545-5.4522-36.932-1.1804-2.6592-4.3362-5.6219-7.9258-7.4409-2.5839-1.3094-2.7827-1.327-14.55-1.2899-20.712 0.06533-33.676 0.6874-35.619 1.7092-2.645 1.3907-5.3361 3.9798-6.4924 6.2463-1.8145 3.5566-5.712 26.453-5.8656 34.458-0.080071 4.1731 0.016275 4.6199 1.3843 6.4197 2.0252 2.6643 4.8825 4.0195 8.4751 4.0195 4.1571 0 5.8141-0.88314 11.713-6.2427l5.2325-4.7542h22.405l4.4151 3.9963c2.4283 2.198 5.1372 4.549 6.0197 5.2246 3.0094 2.3036 7.3498 2.6515 11.091 0.88902zm28.595-5.5135c1.1753-0.35214 3.1241-1.5893 4.3306-2.7492 1.9258-1.8515 2.2401-2.4849 2.5747-5.1882 0.43033-3.477-0.0314-9.8779-0.81861-11.349-1.0188-1.9036-7.9018-2.0292-9.262-0.16908-0.9026 1.2344-0.84862 2.8546 0.14224 4.2693 0.60804 0.8681 1.3399 1.1638 2.8801 1.1638h2.065v2.3815c0 4.6975-4.5863 6.7166-7.9738 3.5103-2.1313-2.0173-2.697-4.4064-2.6969-11.39 1.2e-4 -7.0671 0.98418-10.378 3.5928-12.087 2.1347-1.3987 3.7935-0.53202 5.9082 3.0872 2.0337 3.4804 2.8824 4.0092 4.3311 2.6981 1.7682-1.6002 1.168-6.4275-1.226-9.8621-1.2528-1.7974-4.6523-3.4463-7.1377-3.4622-2.6373-0.01687-6.0087 1.8254-7.5202 4.1095-5.3673 8.1105-4.9193 25.741 0.81782 32.19 2.9943 3.3658 5.6944 4.1351 9.9926 2.8474zm11.763-0.79982c0.30364-0.79204 0.67168-1.9114 0.81786-2.4874 0.14617-0.57603 0.52453-2.0488 0.84078-3.2729l0.57502-2.2256h7.7742l0.55241 2.2256c0.94804 3.8195 2.3648 6.9236 3.2368 7.0915 1.532 0.29503 2.5351-1.3675 2.5351-4.2014 0-4.3791-6.8226-32.935-8.2599-34.572-1.0411-1.1856-2.8684-1.1706-3.9572 0.0325-1.2803 1.4147-8.2058 30.797-8.2058 34.814 0 3.5312 3.0018 5.4359 4.0907 2.5956zm22.683 0.57541c0.53068-0.63847 0.79522-3.5495 1.0112-11.128 0.16088-5.6447 0.33762-9.6659 0.39275-8.9359 0.11423 1.5126 2.5754 16.921 2.9849 18.688 0.32564 1.4047 2.0299 2.4135 3.3627 1.9904 1.4709-0.46686 1.9883-2.295 3.6343-12.841l1.512-9.6878 0.19439 10.587c0.17013 9.2654 0.31 10.702 1.1206 11.512 1.2273 1.2257 2.5372 0.41871 3.1483-1.9396 0.24925-0.96186 0.37702-9.2132 0.28395-18.336-0.13361-13.097-0.32046-16.77-0.88792-17.453-0.90409-1.0883-4.4197-1.1504-5.4734-0.0967-0.69909 0.69909-1.9762 6.6219-3.6724 17.031l-0.63913 3.9223-1.6892-9.9282c-0.93957-5.5223-2.0047-10.244-2.4002-10.639-0.39104-0.39104-1.6623-0.83859-2.825-0.99454-1.8845-0.25276-2.2178-0.1253-3.0689 1.1737-0.8731 1.3325-0.95603 2.8968-0.96904 18.28-0.0129 15.237 0.0733 16.956 0.91425 18.242 1.0618 1.6234 2.0317 1.799 3.0658 0.5549zm53.445-0.31357c0.44553-0.79734 0.72358-4.5507 0.86011-11.61l0.20176-10.432 3.3205 8.7549c4.9143 12.957 5.6698 14.466 7.2435 14.466 2.8266 0 2.9395-0.75524 2.9317-19.623-4e-3 -9.5124-0.14992-17.828-0.32441-18.479-0.36099-1.3472-2.5788-2.1372-3.4774-1.2387-0.3854 0.38539-0.66756 4.4204-0.813 11.626-0.12252 6.0696-0.39068 10.841-0.59591 10.604-0.20524-0.2374-2.1-4.9901-4.2105-10.562-2.1106-5.5715-4.2156-10.597-4.6778-11.168-1.1747-1.4507-3.5638-0.83009-4.0957 1.0639-0.2135 0.76019-0.38819 9.1812-0.38819 18.713 0 13.92 0.14147 17.502 0.7187 18.197 1.0118 1.2192 2.5311 1.0757 3.3066-0.31226zm47.539 0.67577c1.0678-0.67535 1.5051-6.3128 1.5501-19.985l0.0373-11.323 2.7062-0.26004c3.3743-0.32423 4.3085-1.3681 3.8522-4.3047-0.17733-1.1412-0.44862-2.2017-0.60287-2.3565-0.15425-0.15482-4.0804-0.28149-8.7249-0.28149h-8.4444l-0.75422 1.3395c-0.50333 0.8939-0.63605 1.9693-0.39898 3.233 0.35497 1.8922 0.35756 1.8938 3.7204 2.2539l3.3652 0.36038 0.15331 15.048c0.12031 11.81 0.30798 15.234 0.872 15.913 0.80955 0.97436 1.5437 1.0741 2.6688 0.36256zm-62.249-1.9849c0.33615-0.88299 0.37457-2.0478 0.0993-3.0111l-0.44893-1.571-11.745-0.29613v-9.8142l4.9944-0.18146c5.6499-0.20528 6.0958-0.49716 5.8773-3.8471-0.13356-2.0477-0.18357-2.0975-2.2313-2.222-1.1521-0.07002-3.5674-0.26551-5.3676-0.43443l-3.2729-0.30713v-8.1999l5.5184-0.17858c6.143-0.1988 6.6333-0.47226 6.4007-3.5704-0.19521-2.6006-1.6092-3.1385-8.2534-3.1391-7.2687-7.34e-4 -7.7171 0.14683-8.4241 2.7723-0.66655 2.4754-0.48034 33.723 0.2073 34.786 0.30783 0.47563 2.5661 0.65458 8.2606 0.65458h7.837zm50.427 0.61175c0.17483-0.45558 0.31786-1.4967 0.31786-2.3137 0-3.072-0.14127-3.142-6.34-3.142h-5.7043v-9.9496h4.4511c3.7529 0 4.6154-0.16429 5.4985-1.0473 1.0859-1.0859 1.256-2.0482 0.71726-4.0584-0.27654-1.0319-0.65671-1.1782-3.0617-1.1782-1.5103 0-3.8393-0.14986-5.1756-0.33301l-2.4296-0.33301v-8.1111l5.5314-0.37702c5.2954-0.36094 5.5531-0.43403 6.0393-1.7129 0.76736-2.0183-0.0992-3.9926-1.9262-4.3881-2.0146-0.43619-11.155-0.5268-12.653-0.12542-0.77905 0.20879-1.3649 0.95671-1.7377 2.2184-0.65521 2.2174-0.47862 33.985 0.19469 35.025 0.30756 0.4752 2.5523 0.65458 8.1917 0.65458 6.6003 0 7.8158-0.12451 8.0859-0.82832z" opacity=".999" style="paint-order:stroke fill markers"/>
 </g>
 <g transform="matrix(1.0467 0 0 .98797 .086489 -1.3234)" stroke-width=".87957">
  <g stroke-width=".87957">
   <rect width="24" height="24" fill="none"/>
   <path d="m21.58 16.09-1.09-7.66c-0.28-1.97-1.97-3.43-3.96-3.43h-9.06c-1.99 0-3.68 1.46-3.96 3.43l-1.09 7.66c-0.22 1.54 0.97 2.91 2.52 2.91 0.68 0 1.32-0.27 1.8-0.75l2.26-2.25h6l2.25 2.25c0.48 0.48 1.13 0.75 1.8 0.75 1.56 0 2.75-1.37 2.53-2.91zm-2.1 0.72c-0.08 0.09-0.21 0.19-0.42 0.19-0.15 0-0.29-0.06-0.39-0.16l-2.84-2.84h-7.66l-2.84 2.84c-0.1 0.1-0.24 0.16-0.39 0.16-0.21 0-0.34-0.1-0.42-0.19s-0.16-0.23-0.13-0.44l1.09-7.66c0.15-0.97 1-1.71 1.99-1.71h9.06c0.99 0 1.84 0.74 1.98 1.72l1.09 7.66c0.03 0.2-0.05 0.34-0.12 0.43z"/>
   <polygon points="8 10 6 10 6 11 8 11 8 13 9 13 9 11 11 11 11 10 9 10 9 8 8 8"/>
   <circle cx="17" cy="12" r="1"/>
   <circle cx="15" cy="9" r="1"/>
  </g>
 </g>
 <path d="m0.36086 0.369h68.035v20.443l-68.135-0.31134z" fill="none" stroke="#000" stroke-width=".58547"/>
 <g fill="#ff47ff">
  <path d="m21.066 20.253c-11.209-0.05484-20.392-0.12067-20.406-0.1462-0.013997-0.02557-0.004381-4.385 0.021357-9.6876l0.046829-9.6411h67.349v19.621l-13.315-0.022952c-7.3233-0.012475-22.486-0.067905-33.696-0.12269zm-14.354-3.1604c0.3105-0.1804 1.0611-0.8195 1.668-1.4203l1.1035-1.0923h6.2556l1.4731 1.343c1.2965 1.182 1.5605 1.3621 2.2022 1.5026 0.9266 0.20282 1.7141 0.0154 2.3967-0.57101 0.67947-0.58354 0.8908-1.0512 0.88728-1.9634-0.004778-1.1639-1.1601-8.4232-1.4291-8.9778-0.40182-0.82825-1.0337-1.449-1.9121-1.8783l-0.85013-0.41553h-5.7635c-6.535 0-6.5719 0.00492-7.73 1.0233-0.40322 0.3546-0.79242 0.86239-0.96938 1.2648-0.36907 0.83916-1.5972 8.7703-1.4687 9.4842 0.32103 1.7826 2.4727 2.6673 4.1365 1.7006zm22.035-1.3157c0.41611-0.10242 0.83734-0.34707 1.2235-0.71039 0.54655-0.51422 0.5962-0.62087 0.68939-1.4814 0.10998-1.0156-0.0055-2.5534-0.22231-2.9488-0.11439-0.209-0.30516-0.25091-1.1423-0.25091-1.1487 0-1.3371 0.11437-1.3371 0.81188 0 0.63641 0.20178 0.81188 0.9338 0.81188h0.60177l-0.04136 0.77342c-0.03813 0.70933-0.08066 0.79903-0.51168 1.0825-0.86148 0.56642-1.5778 0.33593-2.1159-0.68087-0.24183-0.45678-0.31134-0.86914-0.36029-2.1344-0.08893-2.3004 0.37822-3.6344 1.3454-3.8422 0.58476-0.12565 0.93187 0.15095 1.3984 1.1142 0.43224 0.89246 0.57767 0.98409 0.98702 0.62177 0.50264-0.44497 0.23205-1.9843-0.47994-2.7301-0.89063-0.93302-2.4997-0.9359-3.3747-0.00599-1.6851 1.7908-1.6937 7.0786-0.01426 8.8605 0.75805 0.80444 1.3406 0.97507 2.4206 0.70906zm3.0375 0.05241c0.13938-0.08673 0.34196-0.73166 0.65791-2.095 0.08516-0.36742 0.10017-0.37212 1.1788-0.37212h1.0925l0.23826 1.0785c0.24445 1.1064 0.54506 1.5622 0.93416 1.4162 0.41591-0.15612 0.5354-0.87429 0.31554-1.8967-0.65787-3.059-1.8037-7.7566-1.9694-8.074-0.25194-0.48275-0.91452-0.51983-1.2091-0.067663-0.10912 0.16743-0.5512 1.8572-0.98237 3.755-1.134 4.9907-1.1969 5.3448-1.0278 5.78 0.19821 0.50978 0.45869 0.67048 0.77147 0.47584zm6.1955-0.19686c0.17858-0.2494 0.21804-0.83257 0.23067-3.4167l0.01426-3.1159 0.45046 2.9824c0.2477 1.6403 0.49414 3.117 0.5475 3.2815 0.22713 0.7003 1.0612 0.65389 1.2525-0.06968 0.05484-0.20662 0.30418-1.7457 0.55461-3.4202l0.45529-3.0446 0.01393 3.3393c0.01038 2.8424 0.04704 3.371 0.23208 3.552 0.11952 0.11697 0.27072 0.21264 0.33596 0.21264 0.06503 0 0.21658-0.0957 0.33597-0.21264 0.18933-0.18516 0.21742-0.82183 0.21742-4.9293 0-5.2615 0.02179-5.1438-0.94366-5.1399-0.27992 0.00108-0.59361 0.054561-0.69716 0.11874-0.12212 0.075726-0.34054 1.0916-0.62267 2.8962-0.23836 1.5288-0.46921 2.8141-0.51232 2.8562-0.0428 0.04221-0.25089-1.0946-0.462-2.5261-0.21069-1.4316-0.45592-2.7551-0.54458-2.9411-0.13216-0.27751-0.275-0.34554-0.79472-0.37863-1.0368-0.066017-1.0179-0.1441-1.0704 4.4248-0.04904 4.2766 0.01364 5.3071 0.34255 5.6289 0.28116 0.27498 0.41068 0.2559 0.66401-0.09789zm14.147-0.10634c0.12355-0.23838 0.17678-1.1891 0.18282-3.2463l0.0086-2.9093 1.0792 2.8416c1.2496 3.2902 1.3639 3.544 1.6441 3.6491 0.35265 0.13242 0.71691-0.06364 0.82607-0.44441 0.05724-0.19969 0.10394-2.4089 0.10394-4.9092 0-3.6543-0.03735-4.59-0.18992-4.7698-0.2244-0.26455-0.64688-0.29319-0.80477-0.05454-0.06174 0.09302-0.1432 1.5689-0.18102 3.2796l-0.06877 3.1105-1.0926-2.9075c-1.3804-3.6728-1.3838-3.6795-1.852-3.6262-0.6825 0.077759-0.71732 0.33207-0.71953 5.2554-0.0011 3.9362 0.02727 4.5775 0.21871 4.8449 0.27176 0.3794 0.6147 0.33325 0.84592-0.11368zm12.727 0c0.12805-0.24761 0.17483-1.37 0.17638-4.2274l0.0011-3.8903h0.73332c0.88184 0 1.0652-0.15137 1.0652-0.87954 0-0.30513-0.07475-0.62786-0.16598-0.71716-0.11484-0.1121-0.82031-0.16234-2.2796-0.16234h-2.1132l-0.23284 0.3475c-0.18267 0.27264-0.20587 0.45484-0.10686 0.8457l0.12591 0.4982 1.7292 0.080636v3.9552c0 3.4017 0.03074 3.9983 0.22054 4.2634 0.27164 0.37941 0.61466 0.33326 0.84594-0.11367zm-16.641-0.30334c0.08614-0.23917 0.08614-0.50502 1.33e-4 -0.74422l-0.13354-0.37208-3.1065-0.07661v-2.6974h1.2973c1.5027 0 1.6466-0.08839 1.5817-0.97102l-0.04296-0.58503-1.418-0.038575-1.418-0.038585v-2.4261h1.5069c1.6526 0 1.6749-0.011487 1.6749-0.86354 0-0.70728-0.15099-0.76022-2.1641-0.76022-1.7364 0-1.8433 0.015666-2.0474 0.30074-0.18409 0.25708-0.21538 0.93348-0.21538 4.6595 0 2.5355 0.05703 4.5055 0.13645 4.7095l0.13642 0.35071 4.0787-0.07483zm13.365 0.09026c0.07868-0.20236 0.08819-0.53001 0.02234-0.77806l-0.11337-0.42846-1.5478-0.03831-1.5478-0.03833v-2.6975h1.2973c1.5027 0 1.6466-0.0884 1.5817-0.97102l-0.04288-0.58506-2.8359-0.07715v-2.4169l1.4841-0.038405c1.4803-0.038306 1.4844-0.039363 1.6176-0.41052 0.08585-0.23916 0.08585-0.50507-7.5e-5 -0.74423l-0.13361-0.37211-1.8645-0.038749c-1.7644-0.036678-1.8774-0.023084-2.1065 0.25179-0.21969 0.26361-0.24208 0.70377-0.24208 4.7498 0 2.8151 0.0528 4.5558 0.14334 4.721 0.13138 0.24027 0.3075 0.26175 2.1477 0.26175h2.0044z" stroke="#fff" stroke-width=".29219" style="paint-order:stroke fill markers"/>
  <path d="m32.807 11.686c0-0.10057 0.73238-3.6249 0.77508-3.7298 0.02328-0.057795 0.17411 0.56718 0.42085 1.7462 0.21134 1.0099 0.39448 1.8846 0.40687 1.9438l0.02231 0.10762h-0.81273c-0.66867 0-0.8127-0.01211-0.8127-0.06784z" stroke="#fff" stroke-width=".1033" style="paint-order:stroke fill markers"/>
  <rect x="24.455" y="3.6716" width="42.813" height="13.647" opacity=".999" stroke-width="0" style="paint-order:stroke fill markers"/>
 </g>
 <text transform="scale(1.0687 .93576)" x="21.653706" y="16.303417" fill="#ffffff" font-family="'Agency FB'" font-size="13.714px" stroke-width=".34286" style="font-variant-caps:normal;font-variant-east-asian:normal;font-variant-ligatures:normal;font-variant-numeric:normal;line-height:1.25" xml:space="preserve"><tspan x="21.653706" y="16.303417" fill="#ffffff" font-family="'Agency FB'" font-size="13.714px" stroke-width=".34286" style="font-variant-caps:normal;font-variant-east-asian:normal;font-variant-ligatures:normal;font-variant-numeric:normal">GAME NET</tspan></text>
</svg>
